# xmcd
#
# Track frame offsets:
#	150
#	9996
#	27133
#	57539
#	91814
#	117555
#	151379
#	172054
#	198222
#	225332
#	264379
#	300186
#
# Disc length: 4536 seconds
#
# Revision: 1
# Processed by: cddbd v1.5.1PL2 Copyright (c) Steve Scherf et al.
# Submitted via: EasyCDDAExtractor 9.0.0.1
#
DISCID=8911b60c
DTITLE=Metallica - SBC Park San Francisco 15-11-05 
DYEAR=2005
DGENRE=Hard Rock
TTITLE0=Ecstasy Of Gold
TTITLE1=Orion
TTITLE2=Creeping Death
TTITLE3=Where I May Roam
TTITLE4=For Whom The Bells Tolls
TTITLE5=The Unforgiven
TTITLE6=Fuel
TTITLE7=Sad But True
TTITLE8=Nothing Else Matters
TTITLE9=Master Of Puppets
TTITLE10=One
TTITLE11=Enter Sandman
EXTD=
EXTT0=
EXTT1=
EXTT2=
EXTT3=
EXTT4=
EXTT5=
EXTT6=
EXTT7=
EXTT8=
EXTT9=
EXTT10=
EXTT11=
PLAYORDER=
